<?xml version="1.0" encoding="UTF-8" standalone="no"?>
<!-- Created with Inkscape (http://www.inkscape.org/) -->

<svg
   width="160.39597mm"
   height="160.39597mm"
   viewBox="0 0 160.39596 160.39596"
   version="1.1"
   id="svg5"
   sodipodi:docname="logo.svg"
   inkscape:version="1.1.2 (0a00cf5339, 2022-02-04)"
   xmlns:inkscape="http://www.inkscape.org/namespaces/inkscape"
   xmlns:sodipodi="http://sodipodi.sourceforge.net/DTD/sodipodi-0.dtd"
   xmlns:xlink="http://www.w3.org/1999/xlink"
   xmlns="http://www.w3.org/2000/svg"
   xmlns:svg="http://www.w3.org/2000/svg">
  <sodipodi:namedview
     id="namedview7"
     pagecolor="#ffffff"
     bordercolor="#666666"
     borderopacity="1.0"
     inkscape:pageshadow="2"
     inkscape:pageopacity="0.0"
     inkscape:pagecheckerboard="0"
     inkscape:document-units="mm"
     showgrid="false"
     fit-margin-top="2"
     fit-margin-bottom="2"
     fit-margin-right="2"
     fit-margin-left="2"
     inkscape:zoom="0.18418385"
     inkscape:cx="1998.0036"
     inkscape:cy="971.85501"
     inkscape:window-width="2560"
     inkscape:window-height="1415"
     inkscape:window-x="1920"
     inkscape:window-y="25"
     inkscape:window-maximized="1"
     inkscape:current-layer="layer1"
     showguides="false"
     inkscape:lockguides="false" />
  <defs
     id="defs2">
    <linearGradient
       inkscape:collect="always"
       id="linearGradient14586">
      <stop
         style="stop-color:#ffffff;stop-opacity:1;"
         offset="0"
         id="stop14582" />
      <stop
         style="stop-color:#ffffff;stop-opacity:0;"
         offset="1"
         id="stop14584" />
    </linearGradient>
    <linearGradient
       inkscape:collect="always"
       xlink:href="#linearGradient14586"
       id="linearGradient14588"
       x1="117.00451"
       y1="32.376022"
       x2="60.069298"
       y2="105.51507"
       gradientUnits="userSpaceOnUse" />
  </defs>
  <g
     inkscape:label="Layer 1"
     inkscape:groupmode="layer"
     id="layer1"
     transform="translate(0.33884716,-0.02029133)">
    <circle
       style="fill:#fff0b0;fill-opacity:1;stroke:#fddf65;stroke-width:18.7116;stroke-linejoin:round;stroke-miterlimit:4;stroke-dasharray:none;stroke-opacity:1;paint-order:markers stroke fill"
       id="path10517"
       cx="79.859138"
       cy="80.218277"
       r="68.842186" />
    <circle
       style="fill:url(#linearGradient14588);fill-opacity:1;stroke:none;stroke-width:24.5105;stroke-linejoin:round;stroke-miterlimit:4;stroke-dasharray:none;stroke-opacity:1;paint-order:markers stroke fill"
       id="path14320"
       cx="96.052719"
       cy="60.937527"
       r="42.642166" />
    <path
       style="fill:#000000;fill-opacity:1;stroke-width:0.264583"
       d="m 66.637568,145.7427 c -6.94843,-4.78573 2.02611,-12.33005 5.53404,-16.50853 1.40849,-3.12913 10.836658,-12.02937 8.97727,-3.96994 -2.96454,6.25088 -5.05674,13.28134 -9.46258,18.64444 -1.38719,1.19595 -3.21,1.88895 -5.04873,1.83403 z m -41.20638,-11.73089 c -2.83446,-1.94221 -7.6556,-0.84837 -6.12295,-5.14262 -5.652,-6.49227 6.09627,-11.691 11.36827,-12.81408 10.26863,-2.05835 19.48025,-7.35021 29.39279,-10.54004 4.371,5.70882 -7.40716,9.00084 -10.26229,13.12123 -7.97962,4.00743 -13.27116,11.47004 -21.06465,15.37302 -1.04178,0.44346 -2.27026,0.47896 -3.31117,0.002 z m 33.72728,-72.911334 c -10.96887,-3.01223 -21.75565,-6.94261 -32.97321,-8.89081 -5.44022,-0.19973 -15.05183,-0.9812 -14.4262,-8.465446 0.45754,-5.47725 3.79515,-11.57013 10.14897,-8.24808 7.71528,0.28092 14.19295,8.64425 21.83359,11.60883 5.4072,4.084556 14.4154,6.734136 17.05992,12.740566 -0.45522,0.561201 -1.034604,0.891971 -1.64307,1.25494 z M 87.105536,39.25103 C 72.099678,38.29468 57.669908,30.65426 48.419238,18.80453 c -1.33116,-8.446917 10.23622,0.863784 13.8127,2.365178 13.14606,7.620522 29.240798,9.601802 44.084882,7.032472 8.09064,-1.900119 15.82943,-5.64881 22.26202,-10.891284 6.65898,0.82307 -2.56129,8.775939 -5.54582,10.794554 -10.33842,7.46814 -23.082215,11.93361 -35.927484,11.14558 z"
       id="path1967"
       sodipodi:nodetypes="ccccccccccccccccccccccccccc" />
    <path
       style="fill:#a59ada;fill-opacity:1;stroke:#6d6398;stroke-width:2.3;stroke-opacity:1;stroke-miterlimit:4;stroke-dasharray:none;stroke-linejoin:round"
       d="m 66.637568,145.7427 c -6.94843,-4.78573 2.02611,-12.33005 5.53404,-16.50853 1.40849,-3.12913 10.836658,-12.02937 8.97727,-3.96994 -2.96454,6.25088 -5.05674,13.28134 -9.46258,18.64444 -1.38719,1.19595 -3.21,1.88895 -5.04873,1.83403 z m -41.20638,-11.73089 c -2.83446,-1.94221 -7.6556,-0.84837 -6.12295,-5.14262 -5.652,-6.49227 6.09627,-11.691 11.36827,-12.81408 10.26863,-2.05835 19.48025,-7.35021 29.39279,-10.54004 4.371,5.70882 -7.40716,9.00084 -10.26229,13.12123 -7.97962,4.00743 -13.27116,11.47004 -21.06465,15.37302 -1.04178,0.44346 -2.27026,0.47896 -3.31117,0.002 z m 33.72728,-72.911334 c -10.96887,-3.01223 -21.75565,-6.94261 -32.97321,-8.89081 -5.44022,-0.19973 -15.05183,-0.9812 -14.4262,-8.465446 0.45754,-5.47725 3.79515,-11.57013 10.14897,-8.24808 7.71528,0.28092 14.19295,8.64425 21.83359,11.60883 5.4072,4.084556 14.4154,6.734136 17.05992,12.740566 -0.45522,0.561201 -1.034604,0.891971 -1.64307,1.25494 z"
       id="path3995"
       sodipodi:nodetypes="cccccccccccccccccccc" />
    <path
       style="fill:#a59ada;fill-opacity:1;stroke:#6d6398;stroke-width:2.3;stroke-opacity:1;stroke-miterlimit:4;stroke-dasharray:none;stroke-linejoin:round"
       d="M 87.105536,39.25103 C 72.099678,38.29468 57.669908,30.65426 48.419238,18.80453 c -1.33116,-8.446917 10.23622,0.863784 13.8127,2.365178 13.14606,7.620522 29.240798,9.601802 44.084882,7.032472 8.09064,-1.900119 15.82943,-5.64881 22.26202,-10.891284 6.65898,0.82307 -2.56129,8.775939 -5.54582,10.794554 -10.33842,7.46814 -23.082215,11.93361 -35.927484,11.14558 z"
       id="path4917"
       sodipodi:nodetypes="ccccccc" />
    <g
       aria-label="G"
       id="text2217"
       style="font-size:90.3111px;line-height:1.25;font-family:Z003;-inkscape-font-specification:'Z003, Normal';fill:#a59ada;fill-opacity:1;stroke:#6d6398;stroke-width:1.73396725;stroke-opacity:1;stroke-miterlimit:4;stroke-dasharray:none;stroke-linejoin:round"
       transform="matrix(1.4759295,-0.05199244,0.73201984,1.1663011,-124.40116,-22.065164)">
      <path
         id="path3481"
         d="M 117.44141,64.140625 C 108.46743,64.292357 99.716589,68.1507 93.29693,74.378724 85.599352,81.659264 80.431248,91.623648 79.0908,102.146 c -0.533629,4.51753 -0.252619,9.39249 2.147592,13.3764 1.887029,3.15313 5.17848,5.41598 8.821206,5.96498 3.938943,0.671 7.9914,0.05 11.796062,-1.04161 2.46513,-0.73105 4.83649,-1.74408 7.16192,-2.83249 -1.08913,4.03819 -2.02527,8.16838 -3.84834,11.95408 -1.01684,1.91661 -2.93719,3.42788 -5.15921,3.53193 -2.947824,0.30532 -5.909667,-0.11055 -8.84493,-0.37587 -1.097673,-0.12835 -2.189685,-0.29989 -3.284241,-0.45194 -1.90464,2.99499 -3.809429,5.98988 -5.714843,8.98438 5.371083,0.59305 10.976419,1.415 16.228456,-0.32447 6.263238,-1.99181 11.306018,-6.61211 15.224968,-11.74831 3.8642,-5.28305 5.315,-11.78995 6.92637,-18.00918 1.01984,-4.04821 2.03475,-8.09766 3.04403,-12.148509 1.10955,0.09277 2.06149,-0.524348 2.92416,-1.131469 2.33649,-1.421654 4.67264,-2.843864 7.00944,-4.265016 -8.58746,-0.679165 -17.20586,-0.778142 -25.81641,-0.78125 -2.25928,1.14355 -4.51568,2.292872 -6.77344,3.439453 0.15426,1.109063 -0.21624,2.388704 0.61133,3.314453 4.05292,-0.216487 8.10664,-0.42756 12.16406,-0.539062 -0.87369,3.4974 -1.74739,6.99479 -2.62109,10.49219 -3.1863,2.78625 -7.13011,4.93524 -11.399186,5.31279 -3.017552,0.21337 -6.198906,-1.15009 -7.773663,-3.80524 -1.964923,-3.09955 -2.183165,-6.83761 -1.937775,-10.4357 0.544852,-8.35896 3.69418,-16.634145 9.247343,-22.952712 3.271921,-3.646248 7.663711,-6.669967 12.664301,-7.0798 3.04197,-0.270132 6.45334,0.732094 8.1775,3.411831 1.73897,2.563669 1.77558,5.760172 2.30093,8.705759 0.13746,0.398026 0.004,1.708351 0.51562,0.846318 3.0684,-3.444871 6.13885,-6.887919 9.20884,-10.331374 -0.8894,-3.388053 -3.04644,-6.721708 -6.45929,-7.964516 -2.5893,-1.046584 -5.43458,-1.147155 -8.1911,-1.121421 z"
         style="fill:#a59ada;fill-opacity:1;stroke:#6d6398;stroke-opacity:1;stroke-width:1.73396725;stroke-miterlimit:4;stroke-dasharray:none;stroke-linejoin:round" />
    </g>
  </g>
</svg>
